<?xml version="1.0" encoding="UTF-8"?>
<svg width="150px" height="28px" viewBox="0 0 150 28" version="1.1" xmlns="http://www.w3.org/2000/svg" xmlns:xlink="http://www.w3.org/1999/xlink">
    <g id="POLITICOLOGO" stroke="none" fill="none" transform="translate(0, 0.857)" fill-rule="evenodd" stroke-width="1">
        <g id="Group" transform="translate(-0.0002, 0)" fill="#000000">
            <path d="M119.670694,6.8389646 C118.491771,5.83498729 117.247486,5.08428717 115.935917,4.58109702 C114.624347,4.08030987 113.245013,3.8299163 111.800796,3.8299163 C109.002237,3.8299163 106.727055,4.72864179 104.972369,6.52320917 C103.217682,8.31777655 102.34154,10.643409 102.34154,13.4996259 C102.34154,16.2630867 103.195093,18.5411395 104.9022,20.3381099 C106.609307,22.1326773 108.764338,23.0289998 111.362966,23.0289998 C112.879753,23.0289998 114.321566,22.7613045 115.690808,22.2254334 C117.06005,21.6895624 118.376907,20.878787 119.63561,19.7950298 L119.63561,24.4981997 C118.516762,25.301766 117.297469,25.9049214 115.981094,26.3004567 C114.661834,26.695992 113.23492,26.8935194 111.695544,26.8935194 C109.738042,26.8935194 107.925683,26.572958 106.266156,25.9323157 C104.604226,25.2916734 103.14463,24.3477713 101.885446,23.098687 C100.638759,21.8745941 99.6775497,20.4327885 99.0095095,18.7732702 C98.3385858,17.111349 98.0031239,15.3412923 98.0031239,13.4640614 C98.0031239,11.5868305 98.3385858,9.82446341 99.0095095,8.1750378 C99.6780303,6.52561218 100.648851,5.07611694 101.920531,3.82943569 C103.19221,2.5702588 104.648922,1.61674469 106.291147,0.970815776 C107.935775,0.322964456 109.713051,0 111.625376,0 C113.129667,0 114.564272,0.217712647 115.928227,0.656021551 C117.292182,1.09433046 118.614325,1.75467742 119.89802,2.64090727 L119.670694,6.8389646 Z" id="Path"></path>
            <polygon id="Path" points="81.1069948 4.14567172 81.1069948 26.2134678 76.9444798 26.2134678 76.9444798 4.14519112 70.1434466 4.14519112 70.1434466 0.613247985 87.8758275 0.613247985 87.8758275 4.14519112"></polygon>
            <polygon id="Path" points="47.9327938 26.2134678 47.9327938 0.613247985 52.0929057 0.613247985 52.0929057 22.4883227 61.3969267 22.4883227 61.3969267 26.2129872"></polygon>
            <path d="M0.000192241769,0.61098435 L0.000192241769,26.2132275 L3.89948011,26.2132275 L3.89948011,14.7239592 L6.29591795,14.7239592 C8.16114372,14.7239592 9.53298098,14.6258731 10.4139289,14.4254622 C11.2948768,14.2274542 12.0605758,13.8976171 12.7137172,13.4295109 C13.5172878,12.8460602 14.1457742,12.0422536 14.6013872,11.0161686 C15.0570002,9.99248663 15.281923,8.87105023 15.281923,7.65945292 C15.281923,6.4478556 15.0569906,5.33689632 14.6013872,4.328113 C14.1457742,3.31932968 13.5172878,2.51917562 12.7137172,1.92322931 C12.0605758,1.45752609 11.2948768,1.12168151 10.4139289,0.91886752 C9.53250038,0.713650522 8.16066311,0.61098435 6.29591795,0.61098435 L0,0.61098435 L0.000192241769,0.61098435 Z M4.16232267,4.18085178 L5.22960091,4.18085178 C7.43221099,4.18085178 8.9434716,4.45822634 9.76434395,5.0190695 C10.5880999,5.57704827 10.9987284,6.54108756 10.9987284,7.90551627 C10.9987284,9.1743052 10.6135768,10.0606312 9.84508549,10.5638213 C9.07659902,11.0641279 7.53746336,11.3147617 5.22960091,11.3147617 L4.16232267,11.3147617 L4.16232267,4.1807076 L4.16232267,4.18085178 Z" id="Shape" fill-rule="nonzero"></path>
            <path d="M30.54789,0 C22.9886209,0 16.860276,6.01163473 16.860276,13.4275356 C16.860276,20.8434365 22.9886209,26.8550712 30.54789,26.8550712 C38.1069715,26.8550712 44.2350234,20.8432524 44.2350234,13.4275356 C44.2350234,6.01181885 38.1069715,0 30.54789,0 L30.54789,0 Z M30.54789,3.84577616 C33.0268974,3.84577616 35.4044147,4.85514233 37.1573827,6.65217509 C38.9103507,8.44920785 39.8951654,10.8865628 39.8951654,13.4280162 C39.8951654,15.9694697 38.9103507,18.4068246 37.1573827,20.2038574 C35.4044147,22.0008901 33.0268974,23.0102563 30.54789,23.0102563 C28.0688826,23.0102563 25.6913653,22.0008901 23.9383973,20.2038574 C22.1854293,18.4068246 21.2006146,15.9694697 21.2006146,13.4280162 C21.2006146,10.8865628 22.1854293,8.44920785 23.9383973,6.65217509 C25.6913653,4.85514233 28.0688826,3.84577616 30.54789,3.84577616 L30.54789,3.84577616 Z" id="Shape" fill-rule="nonzero"></path>
            <path d="M136.506267,0 C128.946997,0 122.818653,6.01163473 122.818653,13.4275356 C122.818653,20.8434365 128.946997,26.8550712 136.506267,26.8550712 C144.065348,26.8550712 150.1934,20.8432524 150.1934,13.4275356 C150.1934,6.01181885 144.065348,0 136.506267,0 L136.506267,0 Z M136.506267,3.84577616 C138.985274,3.84577616 141.362791,4.85514233 143.115759,6.65217509 C144.868727,8.44920785 145.853542,10.8865628 145.853542,13.4280162 C145.853542,15.9694697 144.868727,18.4068246 143.115759,20.2038574 C141.362791,22.0008901 138.985274,23.0102563 136.506267,23.0102563 C134.027259,23.0102563 131.649742,22.0008901 129.896774,20.2038574 C128.143806,18.4068246 127.158991,15.9694697 127.158991,13.4280162 C127.158991,10.8865628 128.143806,8.44920785 129.896774,6.65217509 C131.649742,4.85514233 134.027259,3.84577616 136.506267,3.84577616 L136.506267,3.84577616 Z" id="Shape" fill-rule="nonzero"></path>
            <rect id="Rectangle" x="63.7667872" y="0.613728587" width="4.16251491" height="25.5997392"></rect>
            <rect id="Rectangle" x="90.0510431" y="0.613728587" width="4.16251491" height="25.5997392"></rect>
        </g>
    </g>
</svg>